<svg width="144" height="40" viewBox="0 0 144 40" fill="none" xmlns="http://www.w3.org/2000/svg">
<g opacity="0.4">
<path d="M11.783 27.5337H3.78761V35.5291H11.783V27.5337Z" fill="#3F78E0"/>
</g>
<g opacity="0.8">
<path d="M19.7808 27.5337H11.7854V35.5291H19.7808V27.5337Z" fill="#3F78E0"/>
</g>
<g opacity="0.4">
<path d="M19.7808 19.5382H11.7854V27.5336H19.7808V19.5382Z" fill="#3F78E0"/>
</g>
<path d="M27.7757 27.5337H19.7803V35.5291H27.7757V27.5337Z" fill="#3F78E0"/>
<g opacity="0.8">
<path d="M27.7727 19.5382H19.7773V27.5336H27.7727V19.5382Z" fill="#3F78E0"/>
</g>
<path opacity="0.4" d="M19.7803 11.5427V13.6273V19.5381H27.7757V13.6273V11.5427H19.7803Z" fill="#3F78E0"/>
<path d="M25.3301 13.5419H30.7737L23.7778 4.54712L16.7818 13.5419H22.2254L23.7778 11.509L25.3301 13.5419Z" fill="#3F78E0"/>
<path d="M48.1953 21.0877V35.6247H45.5405L39.2161 26.4752H39.1096V35.6247H36.0361V21.0877H38.7334L45.0082 30.2301H45.136V21.0877H48.1953Z" fill="#240058"/>
<path d="M50.7346 35.6247V21.0877H60.5301V23.6217H53.8081V27.0856H60.0261V29.6197H53.8081V33.0907H60.5585V35.6247H50.7346Z" fill="#240058"/>
<path d="M70.8597 25.2685C70.8029 24.6959 70.5592 24.2511 70.1286 23.934C69.698 23.617 69.1136 23.4585 68.3753 23.4585C67.8737 23.4585 67.4502 23.5294 67.1048 23.6714C66.7593 23.8086 66.4943 24.0003 66.3098 24.2463C66.13 24.4924 66.0401 24.7716 66.0401 25.0839C66.0306 25.3442 66.085 25.5713 66.2033 25.7654C66.3263 25.9594 66.4943 26.1274 66.7073 26.2693C66.9202 26.4066 67.1663 26.5272 67.4455 26.6313C67.7247 26.7307 68.0228 26.8159 68.3399 26.8869L69.6459 27.1992C70.28 27.3411 70.8621 27.5304 71.3921 27.767C71.9221 28.0036 72.3811 28.2947 72.7691 28.6401C73.1571 28.9856 73.4576 29.3925 73.6706 29.861C73.8883 30.3295 73.9995 30.8666 74.0042 31.4723C73.9995 32.3619 73.7723 33.1333 73.3228 33.7863C72.878 34.4346 72.2344 34.9386 71.3921 35.2982C70.5545 35.6531 69.5442 35.8306 68.3612 35.8306C67.1876 35.8306 66.1655 35.6507 65.2947 35.2911C64.4288 34.9315 63.7521 34.3991 63.2647 33.694C62.782 32.9842 62.5288 32.1064 62.5052 31.0606H65.4793C65.5124 31.548 65.652 31.955 65.8981 32.2815C66.1489 32.6033 66.4825 32.847 66.8989 33.0126C67.3201 33.1735 67.7957 33.2539 68.3257 33.2539C68.8462 33.2539 69.2981 33.1782 69.6814 33.0268C70.0694 32.8754 70.3699 32.6648 70.5829 32.395C70.7958 32.1253 70.9023 31.8154 70.9023 31.4652C70.9023 31.1387 70.8053 30.8642 70.6113 30.6418C70.422 30.4194 70.1428 30.2301 69.7737 30.0739C69.4093 29.9178 68.9621 29.7758 68.4321 29.6481L66.8492 29.2506C65.6236 28.9524 64.6559 28.4863 63.9461 27.8522C63.2363 27.2181 62.8837 26.364 62.8885 25.2898C62.8837 24.4096 63.118 23.6406 63.5912 22.9829C64.0691 22.3251 64.7245 21.8117 65.5574 21.4426C66.3902 21.0735 67.3367 20.8889 68.3966 20.8889C69.4756 20.8889 70.4173 21.0735 71.2217 21.4426C72.0309 21.8117 72.6603 22.3251 73.1098 22.9829C73.5594 23.6406 73.7912 24.4025 73.8054 25.2685H70.8597Z" fill="#240058"/>
<path d="M83.9576 25.2685C83.9008 24.6959 83.6571 24.2511 83.2265 23.934C82.7959 23.617 82.2114 23.4585 81.4732 23.4585C80.9716 23.4585 80.5481 23.5294 80.2027 23.6714C79.8572 23.8086 79.5922 24.0003 79.4077 24.2463C79.2279 24.4924 79.1379 24.7716 79.1379 25.0839C79.1285 25.3442 79.1829 25.5713 79.3012 25.7654C79.4242 25.9594 79.5922 26.1274 79.8052 26.2693C80.0181 26.4066 80.2642 26.5272 80.5434 26.6313C80.8226 26.7307 81.1207 26.8159 81.4377 26.8869L82.7438 27.1992C83.3779 27.3411 83.96 27.5304 84.49 27.767C85.02 28.0036 85.479 28.2947 85.867 28.6401C86.255 28.9856 86.5555 29.3925 86.7685 29.861C86.9861 30.3295 87.0974 30.8666 87.1021 31.4723C87.0974 32.3619 86.8702 33.1333 86.4207 33.7863C85.9758 34.4346 85.3323 34.9386 84.49 35.2982C83.6524 35.6531 82.6421 35.8306 81.459 35.8306C80.2855 35.8306 79.2633 35.6507 78.3926 35.2911C77.5267 34.9315 76.85 34.3991 76.3626 33.694C75.8799 32.9842 75.6267 32.1064 75.6031 31.0606H78.5772C78.6103 31.548 78.7499 31.955 78.996 32.2815C79.2468 32.6033 79.5804 32.847 79.9968 33.0126C80.418 33.1735 80.8936 33.2539 81.4235 33.2539C81.9441 33.2539 82.396 33.1782 82.7793 33.0268C83.1673 32.8754 83.4678 32.6648 83.6808 32.395C83.8937 32.1253 84.0002 31.8154 84.0002 31.4652C84.0002 31.1387 83.9032 30.8642 83.7092 30.6418C83.5199 30.4194 83.2407 30.2301 82.8716 30.0739C82.5072 29.9178 82.06 29.7758 81.53 29.6481L79.9471 29.2506C78.7215 28.9524 77.7538 28.4863 77.044 27.8522C76.3342 27.2181 75.9816 26.364 75.9864 25.2898C75.9816 24.4096 76.2159 23.6406 76.6891 22.9829C77.167 22.3251 77.8224 21.8117 78.6553 21.4426C79.4881 21.0735 80.4345 20.8889 81.4945 20.8889C82.5735 20.8889 83.5151 21.0735 84.3196 21.4426C85.1288 21.8117 85.7582 22.3251 86.2077 22.9829C86.6573 23.6406 86.8891 24.4025 86.9033 25.2685H83.9576Z" fill="#240058"/>
<path d="M101.996 26.1771H98.8868C98.83 25.7748 98.7141 25.4175 98.539 25.1052C98.3639 24.7882 98.1391 24.5184 97.8647 24.296C97.5902 24.0736 97.2732 23.9033 96.9135 23.785C96.5586 23.6667 96.1729 23.6075 95.7565 23.6075C95.0041 23.6075 94.3487 23.7944 93.7903 24.1683C93.2319 24.5374 92.799 25.0768 92.4914 25.7867C92.1838 26.4917 92.03 27.3482 92.03 28.3562C92.03 29.3925 92.1838 30.2632 92.4914 30.9683C92.8037 31.6734 93.239 32.2058 93.7974 32.5654C94.3558 32.925 95.0018 33.1049 95.7352 33.1049C96.1469 33.1049 96.5279 33.0504 96.878 32.9416C97.2329 32.8328 97.5476 32.6742 97.8221 32.466C98.0966 32.2531 98.3237 31.9952 98.5035 31.6923C98.6881 31.3895 98.8158 31.044 98.8868 30.656L101.996 30.6702C101.915 31.3374 101.714 31.981 101.392 32.6009C101.075 33.2161 100.647 33.7674 100.108 34.2548C99.573 34.7374 98.9341 35.1207 98.1912 35.4047C97.453 35.6839 96.6178 35.8235 95.6855 35.8235C94.3889 35.8235 93.2296 35.5301 92.2074 34.9433C91.19 34.3565 90.3856 33.5071 89.7941 32.395C89.2073 31.283 88.9139 29.9367 88.9139 28.3562C88.9139 26.7709 89.212 25.4223 89.8083 24.3102C90.4045 23.1982 91.2137 22.3511 92.2358 21.7691C93.258 21.1823 94.4079 20.8889 95.6855 20.8889C96.5279 20.8889 97.3087 21.0072 98.0279 21.2438C98.7519 21.4804 99.3932 21.8259 99.9515 22.2802C100.51 22.7297 100.964 23.281 101.314 23.934C101.669 24.5871 101.896 25.3347 101.996 26.1771Z" fill="#240058"/>
<path d="M106.432 35.6247H103.139L108.157 21.0877H112.118L117.129 35.6247H113.836L110.194 24.4096H110.081L106.432 35.6247ZM106.226 29.9107H114.006V32.3099H106.226V29.9107Z" fill="#240058"/>
<path d="M118.879 35.6247V21.0877H121.952V33.0907H128.185V35.6247H118.879Z" fill="#240058"/>
<path d="M130.22 35.6247V21.0877H140.015V23.6217H133.293V27.0856H139.511V29.6197H133.293V33.0907H140.044V35.6247H130.22Z" fill="#240058"/>
</svg>
