<svg width="25" height="24" viewBox="0 0 25 24" fill="none" xmlns="http://www.w3.org/2000/svg">
<path d="M23.5 12C23.5 5.9 18.6 1 12.5 1C6.4 1 1.5 5.9 1.5 12C1.5 18.1 6.4 23 12.5 23C18.6 23 23.5 18.1 23.5 12ZM3.5 12C3.5 7 7.5 3 12.5 3C17.5 3 21.5 7 21.5 12C21.5 17 17.5 21 12.5 21C7.5 21 3.5 17 3.5 12ZM16.9 15.9C17 15.8 17 15.6 17 15.5L17 9.5C17 8.9 16.6 8.5 16 8.5C15.4 8.5 15 8.9 15 9.5L15 13.1L9.7 7.8C9.3 7.4 8.7 7.4 8.3 7.8C8.1 8 8 8.3 8 8.5C8 8.7 8.1 9 8.3 9.2L13.6 14.5L10 14.5C9.4 14.5 9 14.9 9 15.5C9 16.1 9.4 16.5 10 16.5L16 16.5C16.1 16.5 16.3 16.5 16.4 16.4C16.6 16.3 16.8 16.1 16.9 15.9Z" fill="#47B990"/>
</svg>
